HIERARCHY
ROOT Hips
{
 OFFSET 0.000000 0.000000 0.000000
 CHANNELS 6 Xposition Yposition Zposition Yrotation Xrotation Zrotation
 JOINT Chest
 {
  OFFSET 0.000000 9.585900 0.002600
  CHANNELS 3 Yrotation Xrotation Zrotation
  JOINT Chest2
  {
   OFFSET 0.000000 9.601200 -0.005300
   CHANNELS 3 Yrotation Xrotation Zrotation
   JOINT Chest3
   {
    OFFSET 0.000000 9.561800 0.000000
    CHANNELS 3 Yrotation Xrotation Zrotation
    JOINT Chest4
    {
     OFFSET 0.000000 9.552100 0.000000
     CHANNELS 3 Yrotation Xrotation Zrotation
     JOINT Neck
     {
      OFFSET 0.000000 14.453000 0.000000
      CHANNELS 3 Yrotation Xrotation Zrotation
      JOINT Head
      {
       OFFSET 0.000000 8.936500 -0.011300
       CHANNELS 3 Yrotation Xrotation Zrotation
       End Site
       {
        OFFSET 0.000000 17.073600 -0.006000
       }
      }
     }
     JOINT RightCollar
     {
      OFFSET -2.921100 9.558500 0.000000
      CHANNELS 3 Yrotation Xrotation Zrotation
      JOINT RightShoulder
      {
       OFFSET -13.519700 0.000000 0.000000
       CHANNELS 3 Yrotation Xrotation Zrotation
       JOINT RightElbow
       {
        OFFSET 0.000000 -29.696600 0.000000
        CHANNELS 3 Yrotation Xrotation Zrotation
        JOINT RightWrist
        {
         OFFSET 0.000000 -24.004700 0.000000
         CHANNELS 3 Yrotation Xrotation Zrotation
         End Site
         {
          OFFSET 0.000000 -17.728500 0.000000
         }
        }
       }
      }
     }
     JOINT LeftCollar
     {
      OFFSET 2.921100 9.558500 0.000000
      CHANNELS 3 Yrotation Xrotation Zrotation
      JOINT LeftShoulder
      {
       OFFSET 13.519700 0.000000 0.000000
       CHANNELS 3 Yrotation Xrotation Zrotation
       JOINT LeftElbow
       {
        OFFSET 0.000000 -29.696600 0.000000
        CHANNELS 3 Yrotation Xrotation Zrotation
        JOINT LeftWrist
        {
         OFFSET 0.000000 -24.004700 0.000000
         CHANNELS 3 Yrotation Xrotation Zrotation
         End Site
         {
          OFFSET 0.000000 -17.728500 0.000000
         }
        }
       }
      }
     }
    }
   }
  }
 }
 JOINT RightHip
 {
  OFFSET -7.771700 -0.012900 -0.001300
  CHANNELS 3 Yrotation Xrotation Zrotation
  JOINT RightKnee
  {
   OFFSET 0.000000 -40.869800 0.001200
   CHANNELS 3 Yrotation Xrotation Zrotation
   JOINT RightAnkle
   {
    OFFSET 0.000000 -39.717900 0.002100
    CHANNELS 3 Yrotation Xrotation Zrotation
    JOINT RightToe
    {
     OFFSET 0.000000 -4.965400 11.033500
     CHANNELS 3 Yrotation Xrotation Zrotation
     End Site
     {
      OFFSET 0.000000 -1.423100 5.872300
     }
    }
   }
  }
 }
 JOINT LeftHip
 {
  OFFSET 7.771700 -0.012900 -0.001300
  CHANNELS 3 Yrotation Xrotation Zrotation
  JOINT LeftKnee
  {
   OFFSET 0.000000 -40.869800 0.001200
   CHANNELS 3 Yrotation Xrotation Zrotation
   JOINT LeftAnkle
   {
    OFFSET 0.000000 -39.717900 0.002100
    CHANNELS 3 Yrotation Xrotation Zrotation
    JOINT LeftToe
    {
     OFFSET 0.000000 -4.965400 11.033500
     CHANNELS 3 Yrotation Xrotation Zrotation
     End Site
     {
      OFFSET 0.000000 -1.423100 5.872300
     }
    }
   }
  }
 }
}
MOTION
Frames: 12
Frame Time: 0.008333
0.000000 85.388000 0.000000 0.000000 -5.767877 0.000000 0.000000 11.653817 0.000000 0.000000 -5.885947 0.000000 0.000000 -0.000000 0.000000 0.000000 -0.000000 0.000000 0.000000 12.528835 0.000000 0.000000 0.711642 0.000000 0.000000 -0.000000 0.000000 0.000000 0.000000 -90.000000 0.000000 -2.309062 0.000000 0.000000 2.309062 0.000000 0.000000 -0.000000 0.000000 0.000000 -0.000000 90.000000 0.000000 -2.309062 0.000000 0.000000 2.309062 0.000000 0.000000 8.520406 0.000000 0.000000 1.905762 0.000000 -0.000000 -4.658285 0.000000 0.000000 -0.000000 0.000000 0.000000 8.520406 0.000000 0.000000 1.905762 0.000000 -0.000000 -4.658285 0.000000 0.000000 -0.000000 0.000000
-57.947281 50.551699 -0.644366 163.849990 -8.385113 0.094631 3.868214 7.974795 0.646814 0.195989 0.431142 -0.022056 0.342942 0.739368 -0.037062 3.466788 7.545194 -0.173212 1.502874 18.593698 0.277851 2.683824 -1.280335 0.016407 2.383511 7.091272 0.374983 -5.575227 -12.639136 -7.841039 -49.417360 -72.908075 70.894445 -1.882867 1.902595 -26.424438 -6.087672 4.082828 0.322695 19.712504 -7.040104 2.261005 56.024380 -78.204486 -81.447025 0.892201 8.405242 15.590203 -6.129375 -72.028058 -1.621062 -116.493617 79.810183 -113.722237 0.934680 -15.990347 -1.727045 -0.382961 0.923500 -0.174818 -5.248192 -75.892035 22.453451 111.967548 78.733742 108.579884 -16.225308 -20.870595 0.521474 -0.304149 -1.190921 -0.151918
-57.949064 50.551836 -0.635979 163.889579 -8.349619 0.080421 3.829477 7.940264 0.652947 0.194764 0.440040 -0.023446 0.343111 0.732226 -0.035388 3.457675 7.551854 -0.169483 1.507179 18.595097 0.271755 2.687309 -1.290892 0.013886 2.390595 7.101795 0.361880 -5.578495 -12.619609 -7.841607 -49.411439 -72.910892 70.904225 -1.890924 1.905013 -26.425080 -6.068785 4.092528 0.309862 19.726099 -7.024561 2.254806 56.109568 -78.222351 -81.551854 0.907423 8.428187 15.592376 -6.203801 -72.058141 -1.576948 -116.442519 79.809721 -113.673449 0.930478 -15.995116 -1.723029 -0.380298 0.930616 -0.174360 -5.333571 -75.926301 22.502725 111.793514 78.714018 108.395885 -16.254893 -20.828461 0.531016 -0.314210 -1.177954 -0.153901
-57.950493 50.552906 -0.632829 163.894715 -8.346898 0.076485 3.822857 7.949700 0.654714 0.195791 0.438558 -0.025759 0.341678 0.743191 -0.035962 3.450119 7.565902 -0.168940 1.515709 18.565316 0.270583 2.688570 -1.296748 0.011384 2.396526 7.071856 0.358126 -5.577439 -12.602297 -7.846319 -49.357990 -72.906673 70.864227 -1.890969 1.954373 -26.411185 -6.053254 4.076740 0.306838 19.754209 -6.969127 2.247522 56.220587 -78.249533 -81.681252 0.913085 8.422062 15.580133 -6.220231 -72.060146 -1.560839 -116.413108 79.808883 -113.647533 0.929088 -15.991411 -1.719538 -0.376405 0.928807 -0.174102 -5.360163 -75.928038 22.524101 111.722746 78.707688 108.318971 -16.266331 -20.781107 0.545210 -0.287201 -1.153253 -0.149830
-57.951665 50.554368 -0.631552 163.894129 -8.356197 0.073931 3.824100 7.968033 0.653922 0.192722 0.439566 -0.024867 0.344714 0.735677 -0.033953 3.442092 7.578652 -0.168936 1.522360 18.556338 0.268024 2.690799 -1.298755 0.010227 2.396163 7.080619 0.350704 -5.571786 -12.617655 -7.840592 -49.352217 -72.907203 70.862761 -1.888737 1.974943 -26.406444 -6.031163 4.087696 0.289890 19.753888 -6.965702 2.256539 56.088998 -78.226974 -81.541705 0.918993 8.419190 15.570994 -6.228784 -72.050365 -1.549103 -116.397812 79.807054 -113.634785 0.928776 -15.987401 -1.722542 -0.375115 0.925597 -0.169700 -5.395616 -75.915876 22.549683 111.674526 78.696619 108.261072 -16.246875 -20.735941 0.555781 -0.297185 -1.176228 -0.162905
-57.951562 50.555935 -0.630307 163.893080 -8.367502 0.063734 3.824933 7.989164 0.660847 0.190142 0.436410 -0.022243 0.346715 0.740141 -0.036210 3.431000 7.578224 -0.163817 1.524713 18.562909 0.262909 2.700159 -1.311284 0.003212 2.409029 7.072469 0.345565 -5.572429 -12.594635 -7.852578 -49.323870 -72.910780 70.842039 -1.895600 1.949547 -26.404104 -6.016292 4.079457 0.284432 19.759971 -6.953229 2.258322 56.053379 -78.215939 -81.503184 0.919914 8.421271 15.573629 -6.262167 -72.035245 -1.512402 -116.373670 79.806993 -113.612061 0.930908 -15.987060 -1.722211 -0.375890 0.925224 -0.170369 -5.448778 -75.901839 22.596918 111.628591 78.687637 108.209020 -16.230072 -20.693938 0.561973 -0.298969 -1.170847 -0.163182
-57.952024 50.557138 -0.626661 163.886239 -8.362881 0.054062 3.817896 8.001116 0.666201 0.203516 0.421614 -0.019542 0.340121 0.746993 -0.036457 3.422924 7.579197 -0.161352 1.534243 18.557879 0.258345 2.702537 -1.306078 -0.001620 2.420606 7.074056 0.333521 -5.582145 -12.551602 -7.867917 -49.394503 -72.923490 70.926756 -1.894679 1.948902 -26.400389 -5.995368 4.084033 0.272710 19.762536 -6.954705 2.261384 56.013694 -78.211888 -81.459161 0.923168 8.423990 15.573748 -6.297911 -72.035230 -1.467655 -116.320664 79.810647 -113.560339 0.932885 -15.985420 -1.719375 -0.377348 0.929202 -0.174249 -5.497322 -75.907245 22.646601 111.556517 78.675099 108.137123 -16.239256 -20.633275 0.573228 -0.295429 -1.177747 -0.166177
-57.951466 50.557936 -0.620241 163.892044 -8.342477 0.033509 3.806874 7.987735 0.680899 0.203244 0.421218 -0.018106 0.339091 0.746818 -0.035946 3.416615 7.583334 -0.161486 1.527065 18.571951 0.256837 2.720912 -1.317233 -0.012793 2.431774 7.074223 0.330910 -5.585430 -12.540393 -7.878173 -49.234561 -72.925127 70.777241 -1.904729 1.917217 -26.397900 -5.982289 4.083887 0.262543 19.780457 -6.944240 2.268210 56.024912 -78.218416 -81.474578 0.927141 8.427978 15.572402 -6.378564 -72.049898 -1.388097 -116.261399 79.814118 -113.502960 0.940993 -15.978178 -1.714987 -0.385559 0.929269 -0.180932 -5.581865 -75.922963 22.722033 111.437962 78.670611 108.021500 -16.245728 -20.602464 0.568158 -0.325575 -1.157172 -0.160372
-57.953442 50.559134 -0.618115 163.896270 -8.341345 0.037181 3.796513 7.995395 0.671776 0.196414 0.425697 -0.018693 0.336054 0.751768 -0.038412 3.420256 7.577182 -0.160286 1.530303 18.575016 0.254285 2.729046 -1.314077 -0.016089 2.435381 7.069743 0.331895 -5.584624 -12.530308 -7.890287 -49.213223 -72.924091 70.759585 -1.901386 1.923327 -26.398872 -5.973214 4.081512 0.252920 19.800272 -6.934831 2.273972 56.039035 -78.230054 -81.493429 0.927090 8.433577 15.573568 -6.376492 -72.050220 -1.393066 -116.242711 79.814213 -113.486980 0.936560 -15.981103 -1.712647 -0.382162 0.933421 -0.180742 -5.559876 -75.923938 22.685563 111.347831 78.659949 107.937720 -16.272104 -20.556414 0.578322 -0.334577 -1.175868 -0.168299
-57.955733 50.560094 -0.615203 163.905078 -8.333955 0.043693 3.785056 7.996449 0.657945 0.194652 0.422639 -0.014857 0.336797 0.755083 -0.042561 3.413992 7.579401 -0.162538 1.532917 18.578955 0.251948 2.734124 -1.307568 -0.017587 2.441640 7.065614 0.331368 -5.590497 -12.522890 -7.897764 -49.199146 -72.920032 70.747927 -1.897105 1.929224 -26.395898 -5.964509 4.078982 0.245986 19.808958 -6.923941 2.282862 56.087358 -78.240454 -81.541061 0.924157 8.437153 15.576623 -6.368509 -72.058901 -1.408434 -116.231851 79.813481 -113.477429 0.929604 -15.982063 -1.714045 -0.372795 0.935544 -0.175070 -5.538740 -75.931125 22.654454 111.254420 78.654281 107.849916 -16.341550 -20.505152 0.592426 -0.318466 -1.196173 -0.169643
-57.957373 50.560945 -0.612053 163.912410 -8.325452 0.049588 3.776234 7.995775 0.646071 0.193574 0.429887 -0.021413 0.338150 0.744278 -0.034840 3.404455 7.584096 -0.166229 1.535286 18.583438 0.248425 2.739925 -1.298421 -0.022584 2.445799 7.066043 0.332075 -5.589119 -12.526055 -7.900186 -49.190749 -72.917584 70.740501 -1.898877 1.946797 -26.398748 -5.957541 4.081092 0.240432 19.812838 -6.920358 2.293382 56.154581 -78.245852 -81.606811 0.922584 8.437835 15.578022 -6.358730 -72.068574 -1.425871 -116.230505 79.816039 -113.472890 0.920360 -15.982437 -1.719547 -0.364763 0.937257 -0.170991 -5.520725 -75.940255 22.627299 111.158571 78.646812 107.756834 -16.386668 -20.446023 0.610192 -0.325729 -1.174786 -0.170768
-57.957084 50.561749 -0.608482 163.923667 -8.317241 0.046323 3.764563 7.991035 0.645652 0.190259 0.432192 -0.022179 0.342026 0.742540 -0.034942 3.394410 7.584998 -0.167466 1.537043 18.587006 0.244780 2.738871 -1.265030 -0.047009 2.451568 7.071754 0.333422 -5.589434 -12.532788 -7.904536 -49.176024 -72.914779 70.726652 -1.906222 1.957599 -26.412112 -5.950321 4.087885 0.233780 19.800144 -6.916963 2.308380 56.195594 -78.250496 -81.620598 0.917982 8.433485 15.575262 -6.378923 -72.078600 -1.413315 -116.236724 79.815603 -113.478369 0.915220 -15.977440 -1.720036 -0.361177 0.931635 -0.169467 -5.533162 -75.948492 22.627640 111.052834 78.637434 107.653786 -16.400134 -20.396880 0.615666 -0.333494 -1.192431 -0.176910
